<?xml version="1.0" encoding="UTF-8"?>
<svg id="Layer_1" data-name="Layer 1" xmlns="http://www.w3.org/2000/svg" viewBox="0 0 302.38 220.2">
  <defs>
    <style>
      .cls-1 {
        fill: #231f20;
      }
    </style>
  </defs>
  <path class="cls-1" d="M0,173.63V11.79C0,6.18,5.62,2.32,10.85,4.33l14.78,5.67c2.03.78,3.65,2.35,4.5,4.35l55.22,131.08c.77,1.84,3.52,1.29,3.52-.71V45.9c0-5.6,5.62-9.46,10.85-7.46l11.62,4.46c3.09,1.18,5.12,4.15,5.12,7.46v161.85c0,5.6-5.62,9.46-10.85,7.46l-15.77-6.05c-2.02-.78-3.64-2.34-4.49-4.34L31.1,81.3c-.78-1.84-3.51-1.28-3.51.71v96.08c0,5.6-5.62,9.46-10.85,7.46l-11.62-4.46c-3.09-1.18-5.12-4.15-5.12-7.46Z"/>
  <g>
    <path class="cls-1" d="M293.51,0c-.86,0-1.74.13-2.62.4l-38.5,11.77c-3.36,1.03-5.66,4.13-5.66,7.65v7.32c0,5.38,5.2,9.22,10.34,7.65l17.45-5.34c2.42-.74,4.86,1.07,4.86,3.6v119.69c0,1.65-1.08,3.11-2.66,3.6l-24.33,7.44c-3.36,1.03-5.66,4.13-5.66,7.65v7.32c0,5.38,5.2,9.22,10.34,7.65l39.02-11.93c3.74-1.15,6.29-4.6,6.29-8.51V8.9C302.38,3.84,298.25,0,293.51,0Z"/>
    <path class="cls-1" d="M188.55,183.3l-21.81,6.67c-2.42.74-4.86-1.07-4.86-3.6v-119.69c0-1.65,1.08-3.11,2.66-3.6l28.68-8.77c3.36-1.03,5.66-4.13,5.66-7.65v-7.32c0-5.38-5.2-9.22-10.34-7.65l-43.37,13.26c-3.74,1.14-6.3,4.59-6.3,8.5v157.06c0,5.06,4.15,8.9,8.89,8.9.86,0,1.74-.13,2.61-.39l42.84-13.1c3.36-1.03,5.66-4.13,5.66-7.65v-7.32c0-5.38-5.2-9.22-10.34-7.65Z"/>
  </g>
</svg>